<svg width="18" height="16" viewBox="0 0 18 16" fill="none" xmlns="http://www.w3.org/2000/svg">
<g clip-path="url(#clip0_1842_1149)">
<mask id="mask0_1842_1149" style="mask-type:alpha" maskUnits="userSpaceOnUse" x="0" y="0" width="18" height="16">
<path d="M1.125 9H14.4731L10.386 13.905C9.98775 14.382 10.053 15.0919 10.53 15.489C11.0081 15.8872 11.7169 15.822 12.1151 15.345L17.7401 8.595C17.784 8.54213 17.8054 8.48025 17.838 8.42175C17.865 8.3745 17.8976 8.334 17.9179 8.28225C17.9685 8.15288 17.9989 8.01675 17.9989 7.8795C17.9989 7.87837 18 7.87613 18 7.875C18 7.87387 17.9989 7.87163 17.9989 7.8705C17.9989 7.73325 17.9685 7.59712 17.9179 7.46775C17.8976 7.416 17.865 7.3755 17.838 7.32825C17.8054 7.26975 17.784 7.20787 17.7401 7.155L12.1151 0.405C11.8913 0.138375 11.5718 0 11.25 0C10.9958 0 10.7404 0.0854999 10.53 0.261C10.053 0.658125 9.98775 1.368 10.386 1.845L14.4731 6.75H1.125C0.504 6.75 0 7.254 0 7.875C0 8.496 0.504 9 1.125 9Z" fill="white"/>
</mask>
<g mask="url(#mask0_1842_1149)">
<path d="M1.125 9H14.4731L10.386 13.905C9.98775 14.382 10.053 15.0919 10.53 15.489C11.0081 15.8872 11.7169 15.822 12.1151 15.345L17.7401 8.595C17.784 8.54213 17.8054 8.48025 17.838 8.42175C17.865 8.3745 17.8976 8.334 17.9179 8.28225C17.9685 8.15288 17.9989 8.01675 17.9989 7.8795C17.9989 7.87837 18 7.87613 18 7.875C18 7.87387 17.9989 7.87163 17.9989 7.8705C17.9989 7.73325 17.9685 7.59712 17.9179 7.46775C17.8976 7.416 17.865 7.3755 17.838 7.32825C17.8054 7.26975 17.784 7.20787 17.7401 7.155L12.1151 0.405C11.8913 0.138375 11.5718 0 11.25 0C10.9958 0 10.7404 0.0854999 10.53 0.261C10.053 0.658125 9.98775 1.368 10.386 1.845L14.4731 6.75H1.125C0.504 6.75 0 7.254 0 7.875C0 8.496 0.504 9 1.125 9Z" fill="#B897E6"/>
</g>
</g>
<defs>
<clipPath id="clip0_1842_1149">
<rect width="18" height="15.75" fill="white"/>
</clipPath>
</defs>
</svg>
