<svg width="26" height="28" viewBox="0 0 26 28" fill="none" xmlns="http://www.w3.org/2000/svg">
<path d="M24.7081 25.8496H3.27443C2.87993 25.8489 2.50175 25.6813 2.2227 25.3836C1.94382 25.0857 1.78673 24.682 1.78614 24.261V1.38293C1.78614 1.04227 1.6159 0.727579 1.3396 0.557355C1.06331 0.387132 0.722824 0.387132 0.446534 0.557355C0.170239 0.727579 0 1.04228 0 1.38293V24.261C0.000598049 25.1876 0.345862 26.0764 0.959665 26.7318C1.57364 27.3869 2.40633 27.7554 3.27445 27.7561H24.7081C25.0272 27.7561 25.3221 27.5744 25.4815 27.2795C25.641 26.9845 25.641 26.6211 25.4815 26.3262C25.3221 26.0313 25.0272 25.8496 24.7081 25.8496L24.7081 25.8496Z" fill="#3C3C3C"/>
<path d="M20.2427 10.2799V21.7189C20.2427 22.0596 20.4129 22.3743 20.6892 22.5445C20.9655 22.7147 21.306 22.7147 21.5823 22.5445C21.8586 22.3743 22.0288 22.0596 22.0288 21.7189V10.2799C22.0288 9.93924 21.8586 9.62455 21.5823 9.45433C21.306 9.2841 20.9655 9.2841 20.6892 9.45433C20.4129 9.62455 20.2427 9.93925 20.2427 10.2799V10.2799Z" fill="#3C3C3C"/>
<path d="M13.0981 14.0929V21.7189C13.0981 22.0596 13.2684 22.3743 13.5447 22.5445C13.821 22.7147 14.1615 22.7147 14.4377 22.5445C14.714 22.3743 14.8843 22.0596 14.8843 21.7189V14.0929C14.8843 13.7522 14.714 13.4375 14.4377 13.2673C14.1615 13.0971 13.821 13.0971 13.5447 13.2673C13.2684 13.4375 13.0981 13.7522 13.0981 14.0929Z" fill="#3C3C3C"/>
<path d="M5.95361 16.6351V21.7191C5.95361 22.0597 6.12385 22.3744 6.40015 22.5446C6.67644 22.7149 7.01693 22.7149 7.29322 22.5446C7.56951 22.3744 7.73975 22.0597 7.73975 21.7191V16.6351C7.73975 16.2945 7.56951 15.9798 7.29322 15.8096C7.01692 15.6393 6.67644 15.6393 6.40015 15.8096C6.12385 15.9798 5.95361 16.2945 5.95361 16.6351Z" fill="#3C3C3C"/>
<path d="M13.4319 4.52234C13.2744 4.35424 13.0637 4.25509 12.8413 4.24423C12.6186 4.23338 12.4005 4.31168 12.2293 4.46382L5.08473 10.819C4.89615 10.9786 4.77614 11.2127 4.75143 11.468C4.72671 11.7235 4.79967 11.9787 4.95376 12.1759C5.10766 12.3731 5.32973 12.4957 5.56952 12.5159C5.80931 12.5361 6.04676 12.4523 6.22774 12.2831L12.7461 6.48628L15.7421 9.68289C15.9093 9.86162 16.1364 9.96206 16.3732 9.96206C16.61 9.96206 16.8371 9.86162 17.0043 9.68289L21.434 4.95601V6.46716C21.434 6.80782 21.6042 7.12251 21.8805 7.29273C22.1568 7.46296 22.4973 7.46296 22.7736 7.29273C23.0499 7.12251 23.2201 6.80781 23.2201 6.46716V2.65415C23.2191 2.40158 23.1246 2.15987 22.9574 1.98116C22.7901 1.80264 22.5635 1.70199 22.327 1.70093H18.7548C18.4356 1.70093 18.1408 1.88264 17.9813 2.17755C17.8218 2.47247 17.8218 2.8359 17.9813 3.13081C18.1408 3.42571 18.4356 3.60743 18.7548 3.60743H20.1705L16.3732 7.66066L13.4319 4.52234Z" fill="#3C3C3C"/>
</svg>
