<svg width="24" height="27" viewBox="0 0 24 27" fill="none" xmlns="http://www.w3.org/2000/svg">
<path d="M10.8871 15.4528C7.15811 15.4528 4.12439 12.1908 4.12439 8.18136C4.12439 4.17186 7.15807 0.909912 10.8871 0.909912C14.6161 0.909912 17.6497 4.17186 17.6497 8.18136C17.6497 12.1908 14.616 15.4528 10.8871 15.4528ZM10.8871 3.43012C10.0132 3.4302 9.15895 3.70892 8.43237 4.23104C7.7058 4.75316 7.13952 5.49523 6.80515 6.36341C6.47078 7.2316 6.38333 8.1869 6.55386 9.10852C6.72439 10.0301 7.14525 10.8767 7.76321 11.5411C8.38117 12.2056 9.16848 12.658 10.0256 12.8413C10.8827 13.0246 11.7711 12.9305 12.5784 12.5709C13.3858 12.2113 14.0759 11.6023 14.5614 10.821C15.0469 10.0396 15.306 9.12104 15.306 8.18136C15.3046 6.92163 14.8386 5.71394 14.0102 4.82321C13.1818 3.93249 12.0586 3.43149 10.8871 3.43012V3.43012Z" fill="#3C3C3C"/>
<path d="M13.0432 26.7153H3.26112C2.75826 26.7147 2.26232 26.5892 1.81198 26.3486C1.36165 26.1081 0.969085 25.7589 0.664918 25.3283C0.360751 24.8977 0.153203 24.3974 0.0584625 23.8663C-0.0362781 23.3353 -0.01565 22.7879 0.118738 22.2668C0.726372 19.8826 2.00682 17.7597 3.78358 16.1908C4.0233 15.9781 4.33178 15.8765 4.64116 15.9083C4.95055 15.9402 5.23549 16.1029 5.43331 16.3607C5.63112 16.6184 5.72561 16.9502 5.69598 17.2828C5.66635 17.6155 5.51503 17.9219 5.27532 18.1346C3.87109 19.3738 2.85896 21.051 2.37847 22.9348C2.33962 23.0835 2.33349 23.2398 2.36056 23.3915C2.38764 23.5432 2.44718 23.686 2.53447 23.8087C2.61886 23.9299 2.72861 24.0281 2.85484 24.0952C2.98106 24.1623 3.12021 24.1965 3.26102 24.1951H13.0432C13.354 24.1951 13.652 24.3278 13.8718 24.5641C14.0916 24.8004 14.215 25.121 14.215 25.4552C14.215 25.7894 14.0916 26.1099 13.8718 26.3462C13.652 26.5825 13.354 26.7153 13.0432 26.7153V26.7153Z" fill="#3C3C3C"/>
<path d="M22.8281 26.7167H17.4734C17.1626 26.7167 16.8645 26.584 16.6447 26.3477C16.425 26.1113 16.3015 25.7908 16.3015 25.4566C16.3015 25.1224 16.425 24.8019 16.6447 24.5656C16.8645 24.3293 17.1626 24.1965 17.4734 24.1965H22.8281C23.1388 24.1965 23.4369 24.3293 23.6567 24.5656C23.8765 24.8019 23.9999 25.1224 23.9999 25.4566C23.9999 25.7908 23.8765 26.1113 23.6567 26.3477C23.4369 26.584 23.1388 26.7167 22.8281 26.7167Z" fill="#3C3C3C"/>
<path d="M22.8281 22.1804H17.4734C17.1626 22.1804 16.8645 22.0476 16.6447 21.8113C16.425 21.575 16.3015 21.2545 16.3015 20.9203C16.3015 20.5861 16.425 20.2655 16.6447 20.0292C16.8645 19.7929 17.1626 19.6602 17.4734 19.6602H22.8281C23.1388 19.6602 23.4369 19.7929 23.6567 20.0292C23.8765 20.2655 23.9999 20.5861 23.9999 20.9203C23.9999 21.2545 23.8765 21.575 23.6567 21.8113C23.4369 22.0476 23.1388 22.1804 22.8281 22.1804V22.1804Z" fill="#3C3C3C"/>
<path d="M22.8281 17.6403H17.4734C17.1626 17.6403 16.8645 17.5076 16.6447 17.2712C16.425 17.0349 16.3015 16.7144 16.3015 16.3802C16.3015 16.046 16.425 15.7255 16.6447 15.4892C16.8645 15.2529 17.1626 15.1201 17.4734 15.1201H22.8281C23.1388 15.1201 23.4369 15.2529 23.6567 15.4892C23.8765 15.7255 23.9999 16.046 23.9999 16.3802C23.9999 16.7144 23.8765 17.0349 23.6567 17.2712C23.4369 17.5076 23.1388 17.6403 22.8281 17.6403Z" fill="#3C3C3C"/>
</svg>
