<svg width="29" height="31" viewBox="0 0 29 31" fill="none" xmlns="http://www.w3.org/2000/svg">
<path d="M25.9265 17.3951H12.3946V3.40538C12.3949 3.13107 12.2785 2.87048 12.0766 2.69227C11.8746 2.51426 11.6072 2.43684 11.3452 2.48037C8.05705 3.02942 5.08109 4.81596 2.99076 7.49641C0.899852 10.1766 -0.158376 13.5617 0.0192167 17.0004C0.197006 20.4388 1.59833 23.6878 3.95334 26.1228C6.30857 28.5577 9.45161 30.0062 12.7772 30.1898C16.1033 30.3734 19.3775 29.2794 21.9702 27.1177C24.5629 24.9561 26.2908 21.8797 26.8219 18.4801C26.8638 18.2093 26.7889 17.9328 26.6165 17.7241C26.4443 17.5152 26.192 17.3951 25.9267 17.3951L25.9265 17.3951ZM13.4956 28.337C10.6508 28.3366 7.90384 27.2634 5.76944 25.3185C3.63514 23.3737 2.2606 20.6909 1.90313 17.773C1.54569 14.8551 2.22987 11.9026 3.82765 9.46921C5.42546 7.03562 7.82694 5.28833 10.5819 4.55458V18.3318C10.5819 18.5804 10.6773 18.8187 10.8475 18.9945C11.0174 19.1702 11.2478 19.2688 11.4883 19.2688H24.8146C24.178 21.8697 22.7175 24.1755 20.6662 25.8189C18.6149 27.4622 16.0906 28.3486 13.4956 28.3368V28.337ZM25.0465 4.40958C23.7962 3.10988 22.3088 2.07937 20.6706 1.3778C19.0323 0.676285 17.2758 0.317648 15.5027 0.322809C15.2622 0.322809 15.0316 0.421467 14.8615 0.597332C14.6916 0.773197 14.5961 1.01148 14.5961 1.26025V14.2765C14.5961 14.5249 14.6918 14.7631 14.8617 14.939C15.0318 15.1146 15.2623 15.2133 15.5027 15.2131H28.093C28.3334 15.2135 28.5641 15.1151 28.7344 14.9392C28.9045 14.7635 29.0002 14.525 28.9999 14.2765C29.0049 12.4432 28.6579 10.6273 27.9795 8.93377C27.3009 7.24008 26.3041 5.70253 25.0467 4.40974L25.0465 4.40958ZM16.4091 13.3393V2.23206C19.1852 2.45897 21.7921 3.70203 23.7613 5.738C25.7307 7.77375 26.9331 10.4688 27.1525 13.339L16.4091 13.3393Z" fill="#3C3C3C"/>
</svg>
