<svg width="26" height="29" viewBox="0 0 26 29" fill="none" xmlns="http://www.w3.org/2000/svg">
<path d="M13.287 21.1998H1.10725C0.498263 21.1998 0 20.668 0 20.018V1.5808C0 0.930767 0.498263 0.398926 1.10725 0.398926H19.1001C19.7091 0.398926 20.2073 0.930767 20.2073 1.5808V14.2268C20.2073 14.8768 19.7091 15.4087 19.1001 15.4087C18.4911 15.4087 17.9928 14.8768 17.9928 14.2268V2.70357H2.15914V18.8361H13.287C13.896 18.8361 14.3943 19.3679 14.3943 20.018C14.3943 20.668 13.896 21.1998 13.287 21.1998Z" fill="#3C3C3C"/>
<path d="M5.09334 15.8814C4.48435 15.8814 3.98608 15.3496 3.98608 14.6995V6.66283C3.98608 6.0128 4.48435 5.48096 5.09334 5.48096C5.70232 5.48096 6.20059 6.0128 6.20059 6.66283V14.6995C6.20059 15.3496 5.70232 15.8814 5.09334 15.8814Z" fill="#3C3C3C"/>
<path d="M9.74385 15.8814C9.13486 15.8814 8.6366 15.3496 8.6366 14.6995V6.66283C8.6366 6.0128 9.13486 5.48096 9.74385 5.48096C10.3528 5.48096 10.8511 6.0128 10.8511 6.66283V14.6995C10.7957 15.3496 10.3528 15.8814 9.74385 15.8814Z" fill="#3C3C3C"/>
<path d="M14.3942 12.9858C13.7853 12.9858 13.287 12.454 13.287 11.804V6.66283C13.287 6.0128 13.7853 5.48096 14.3942 5.48096C15.0032 5.48096 15.5015 6.0128 15.5015 6.66283V11.804C15.4461 12.454 15.0032 12.9858 14.3942 12.9858Z" fill="#3C3C3C"/>
<path d="M18.3251 26.1636C16.7749 26.1636 15.2801 25.5135 14.1729 24.3317C11.903 21.8497 11.903 17.8905 14.1729 15.4086C15.2801 14.2267 16.7195 13.5767 18.3251 13.5767C19.8752 13.5767 21.37 14.2267 22.4772 15.4086C24.7471 17.8905 24.7471 21.8497 22.4772 24.3317C21.37 25.5135 19.9306 26.1636 18.3251 26.1636ZM18.3251 15.8813C17.3285 15.8813 16.4427 16.295 15.723 17.0632C14.2836 18.5996 14.2836 21.1406 15.723 22.7361C16.3874 23.5044 17.3285 23.918 18.3251 23.918C19.3216 23.918 20.2074 23.5044 20.9271 22.7361C22.3665 21.1997 22.3665 18.6587 20.9271 17.0632C20.2627 16.295 19.3216 15.8813 18.3251 15.8813Z" fill="#3C3C3C"/>
<path d="M24.9132 28.1727C24.6364 28.1727 24.3596 28.0545 24.1381 27.8181L20.9271 24.3316C20.4842 23.8589 20.5396 23.1498 20.9271 22.677C21.37 22.2043 22.0344 22.2634 22.4773 22.677L25.6883 26.1635C26.1312 26.6363 26.0758 27.3454 25.6883 27.8181C25.4668 28.0545 25.19 28.1727 24.9132 28.1727Z" fill="#3C3C3C"/>
</svg>
